<svg width="898" height="836" viewBox="0 0 898 836" fill="none" xmlns="http://www.w3.org/2000/svg">
<g style="mix-blend-mode:color-dodge">
<path d="M111.751 56.5828L57.1202 56.5828L2.06741 111.636H56.6978L111.751 56.5828ZM111.751 0.510071H57.1202L2.06741 55.5629H56.6978L111.751 0.510071Z" stroke="#464646" stroke-width="1.01992"/>
<path d="M111.751 168.728H57.1202L2.06733 223.781H56.6977L111.751 168.728ZM111.751 112.655H57.1202L2.06733 167.708H56.6977L111.751 112.655Z" stroke="#1B1B1B" stroke-width="1.01992"/>
<path d="M111.751 280.874H57.1202L2.06741 335.926H56.6978L111.751 280.874ZM111.751 224.801H57.1202L2.06741 279.854H56.6978L111.751 224.801Z" stroke="#464646" stroke-width="1.01992"/>
<path d="M111.751 393.019H57.1202L2.06741 448.072H56.6978L111.751 393.019ZM111.751 336.946H57.1202L2.06741 391.999H56.6978L111.751 336.946Z" stroke="#1B1B1B" stroke-width="1.01992"/>
<path d="M111.751 505.165H57.1202L2.06741 560.218H56.6978L111.751 505.165ZM111.751 449.092H57.1202L2.06741 504.145H56.6978L111.751 449.092Z" stroke="#1B1B1B" stroke-width="1.01992"/>
<path d="M111.751 617.31H57.1202L2.06733 672.363H56.6977L111.751 617.31ZM111.751 561.237H57.1202L2.06733 616.29H56.6977L111.751 561.237Z" stroke="#1B1B1B" stroke-width="1.01992"/>
<path d="M111.751 729.456H57.1202L2.06743 784.508H56.6978L111.751 729.456ZM111.751 673.383H57.1203L2.06743 728.436H56.6978L111.751 673.383Z" stroke="#1B1B1B" stroke-width="1.01992"/>
<path d="M111.751 841.601H57.1202L2.06733 896.654H56.6977L111.751 841.601ZM111.751 785.528H57.1202L2.06733 840.581H56.6977L111.751 785.528Z" stroke="#1B1B1B" stroke-width="1.01992"/>
<path d="M223.896 56.5828L169.266 56.5828L114.213 111.636H168.843L223.896 56.5828ZM223.896 0.510071H169.266L114.213 55.5629H168.843L223.896 0.510071Z" stroke="#1B1B1B" stroke-width="1.01992"/>
<path d="M223.896 168.728H169.266L114.213 223.781H168.843L223.896 168.728ZM223.896 112.655H169.266L114.213 167.708H168.843L223.896 112.655Z" stroke="#464646" stroke-width="1.01992"/>
<path d="M223.896 280.874H169.266L114.213 335.926H168.843L223.896 280.874ZM223.896 224.801H169.266L114.213 279.854H168.843L223.896 224.801Z" stroke="#1B1B1B" stroke-width="1.01992"/>
<path d="M223.896 393.019H169.266L114.213 448.072H168.843L223.896 393.019ZM223.896 336.946H169.266L114.213 391.999H168.843L223.896 336.946Z" stroke="#464646" stroke-width="1.01992"/>
<path d="M223.896 505.165H169.266L114.213 560.217H168.843L223.896 505.165ZM223.896 449.092H169.266L114.213 504.145H168.843L223.896 449.092Z" stroke="#464646" stroke-width="1.01992"/>
<path d="M223.896 617.31H169.266L114.213 672.363H168.843L223.896 617.31ZM223.896 561.237H169.266L114.213 616.29H168.843L223.896 561.237Z" stroke="#1B1B1B" stroke-width="1.01992"/>
<path d="M223.896 729.456H169.266L114.213 784.508H168.843L223.896 729.456ZM223.896 673.383H169.266L114.213 728.436H168.843L223.896 673.383Z" stroke="#1B1B1B" stroke-width="1.01992"/>
<path d="M223.896 841.601H169.266L114.213 896.654H168.843L223.896 841.601ZM223.896 785.528H169.266L114.213 840.581H168.843L223.896 785.528Z" stroke="#1B1B1B" stroke-width="1.01992"/>
<path d="M336.042 56.5828L281.411 56.5828L226.358 111.636H280.989L336.042 56.5828ZM336.042 0.510071H281.411L226.358 55.5629H280.989L336.042 0.510071Z" stroke="#464646" stroke-width="1.01992"/>
<path d="M336.041 168.728H281.411L226.358 223.781H280.989L336.041 168.728ZM336.041 112.655H281.411L226.358 167.708H280.989L336.041 112.655Z" stroke="#1B1B1B" stroke-width="1.01992"/>
<path d="M336.042 280.874H281.411L226.358 335.926H280.989L336.042 280.874ZM336.042 224.801H281.411L226.358 279.854H280.989L336.042 224.801Z" stroke="#464646" stroke-width="1.01992"/>
<path d="M336.042 393.019H281.411L226.358 448.072H280.989L336.042 393.019ZM336.042 336.946H281.411L226.358 391.999H280.989L336.042 336.946Z" stroke="#1B1B1B" stroke-width="1.01992"/>
<path d="M336.042 505.165H281.411L226.358 560.218H280.989L336.042 505.165ZM336.042 449.092H281.411L226.358 504.145H280.989L336.042 449.092Z" stroke="#1B1B1B" stroke-width="1.01992"/>
<path d="M336.041 617.31H281.411L226.358 672.363H280.989L336.041 617.31ZM336.041 561.237H281.411L226.358 616.29H280.989L336.041 561.237Z" stroke="#1B1B1B" stroke-width="1.01992"/>
<path d="M336.042 729.456H281.411L226.358 784.508H280.989L336.042 729.456ZM336.042 673.383H281.411L226.358 728.436H280.989L336.042 673.383Z" stroke="#1B1B1B" stroke-width="1.01992"/>
<path d="M336.041 841.601H281.411L226.358 896.654H280.989L336.041 841.601ZM336.041 785.528H281.411L226.358 840.581H280.989L336.041 785.528Z" stroke="#1B1B1B" stroke-width="1.01992"/>
<path d="M448.187 56.5828L393.556 56.5828L338.504 111.636H393.134L448.187 56.5828ZM448.187 0.510071H393.556L338.504 55.5629H393.134L448.187 0.510071Z" stroke="#464646" stroke-width="1.01992"/>
<path d="M448.187 168.728H393.557L338.504 223.781H393.134L448.187 168.728ZM448.187 112.655H393.557L338.504 167.708H393.134L448.187 112.655Z" stroke="#1B1B1B" stroke-width="1.01992"/>
<path d="M448.187 280.874H393.556L338.504 335.926H393.134L448.187 280.874ZM448.187 224.801H393.556L338.504 279.854H393.134L448.187 224.801Z" stroke="#1B1B1B" stroke-width="1.01992"/>
<path d="M448.187 393.019H393.556L338.504 448.072H393.134L448.187 393.019ZM448.187 336.946H393.556L338.504 391.999H393.134L448.187 336.946Z" stroke="#464646" stroke-width="1.01992"/>
<path d="M448.187 505.165H393.556L338.504 560.218H393.134L448.187 505.165ZM448.187 449.092H393.556L338.504 504.145H393.134L448.187 449.092Z" stroke="#464646" stroke-width="1.01992"/>
<path d="M448.187 617.31H393.557L338.504 672.363H393.134L448.187 617.31ZM448.187 561.237H393.557L338.504 616.29H393.134L448.187 561.237Z" stroke="#1B1B1B" stroke-width="1.01992"/>
<path d="M448.187 729.456H393.556L338.504 784.508H393.134L448.187 729.456ZM448.187 673.383H393.556L338.504 728.436H393.134L448.187 673.383Z" stroke="#1B1B1B" stroke-width="1.01992"/>
<path d="M448.187 841.601H393.557L338.504 896.654H393.134L448.187 841.601ZM448.187 785.528H393.557L338.504 840.581H393.134L448.187 785.528Z" stroke="#1B1B1B" stroke-width="1.01992"/>
<path d="M560.333 56.5828L505.702 56.5828L450.649 111.636H505.28L560.333 56.5828ZM560.333 0.510071H505.702L450.649 55.5629H505.28L560.333 0.510071Z" stroke="#1B1B1B" stroke-width="1.01992"/>
<path d="M560.332 168.728H505.702L450.649 223.781H505.28L560.332 168.728ZM560.332 112.655H505.702L450.649 167.708H505.28L560.332 112.655Z" stroke="#464646" stroke-width="1.01992"/>
<path d="M560.333 280.874H505.702L450.649 335.926H505.28L560.333 280.874ZM560.333 224.801H505.702L450.649 279.854H505.28L560.333 224.801Z" stroke="#1B1B1B" stroke-width="1.01992"/>
<path d="M560.333 393.019H505.702L450.649 448.072H505.28L560.333 393.019ZM560.333 336.946H505.702L450.649 391.999H505.28L560.333 336.946Z" stroke="#464646" stroke-width="1.01992"/>
<path d="M560.332 505.165H505.702L450.649 560.217H505.28L560.332 505.165ZM560.332 449.092H505.702L450.649 504.145H505.28L560.332 449.092Z" stroke="#464646" stroke-width="1.01992"/>
<path d="M560.332 617.31H505.702L450.649 672.363H505.28L560.332 617.31ZM560.332 561.237H505.702L450.649 616.29H505.28L560.332 561.237Z" stroke="#1B1B1B" stroke-width="1.01992"/>
<path d="M560.332 729.456H505.702L450.649 784.508H505.28L560.332 729.456ZM560.332 673.383H505.702L450.649 728.436H505.28L560.332 673.383Z" stroke="#1B1B1B" stroke-width="1.01992"/>
<path d="M560.332 841.601H505.702L450.649 896.654H505.28L560.332 841.601ZM560.332 785.528H505.702L450.649 840.581H505.28L560.332 785.528Z" stroke="#1B1B1B" stroke-width="1.01992"/>
<path d="M672.478 56.5828L617.848 56.5828L562.795 111.636H617.425L672.478 56.5828ZM672.478 0.510071H617.848L562.795 55.5629H617.425L672.478 0.510071Z" stroke="#464646" stroke-width="1.01992"/>
<path d="M672.478 168.728H617.848L562.795 223.781H617.425L672.478 168.728ZM672.478 112.655H617.848L562.795 167.708H617.425L672.478 112.655Z" stroke="#1B1B1B" stroke-width="1.01992"/>
<path d="M672.478 280.874H617.848L562.795 335.926H617.425L672.478 280.874ZM672.478 224.801H617.848L562.795 279.854H617.425L672.478 224.801Z" stroke="#464646" stroke-width="1.01992"/>
<path d="M672.478 393.019H617.848L562.795 448.072H617.425L672.478 393.019ZM672.478 336.946H617.848L562.795 391.999H617.425L672.478 336.946Z" stroke="#1B1B1B" stroke-width="1.01992"/>
<path d="M672.478 505.165H617.848L562.795 560.218H617.425L672.478 505.165ZM672.478 449.092H617.848L562.795 504.145H617.425L672.478 449.092Z" stroke="#1B1B1B" stroke-width="1.01992"/>
<path d="M672.478 617.31H617.848L562.795 672.363H617.425L672.478 617.31ZM672.478 561.237H617.848L562.795 616.29H617.425L672.478 561.237Z" stroke="#1B1B1B" stroke-width="1.01992"/>
<path d="M672.478 729.456H617.848L562.795 784.508H617.425L672.478 729.456ZM672.478 673.383H617.848L562.795 728.436H617.425L672.478 673.383Z" stroke="#1B1B1B" stroke-width="1.01992"/>
<path d="M672.478 841.601H617.848L562.795 896.654H617.425L672.478 841.601ZM672.478 785.528H617.848L562.795 840.581H617.425L672.478 785.528Z" stroke="#1B1B1B" stroke-width="1.01992"/>
<path d="M784.623 56.5828L729.993 56.5828L674.94 111.636H729.571L784.623 56.5828ZM784.624 0.510071H729.993L674.94 55.5629H729.571L784.624 0.510071Z" stroke="#1B1B1B" stroke-width="1.01992"/>
<path fill-rule="evenodd" clip-rule="evenodd" d="M729.782 224.291H673.709L729.782 168.218H673.709L729.782 112.145H785.855L729.782 168.218H785.855L729.782 224.291Z" fill="url(#paint0_linear_5_4)"/>
<path d="M784.623 280.874H729.993L674.94 335.926H729.571L784.623 280.874ZM784.624 224.801H729.993L674.94 279.854H729.571L784.624 224.801Z" stroke="#1B1B1B" stroke-width="1.01992"/>
<path d="M784.623 393.019H729.993L674.94 448.072H729.571L784.623 393.019ZM784.624 336.946H729.993L674.94 391.999H729.571L784.624 336.946Z" stroke="#464646" stroke-width="1.01992"/>
<path d="M784.623 505.165H729.993L674.94 560.218H729.571L784.623 505.165ZM784.624 449.092H729.993L674.94 504.145H729.571L784.624 449.092Z" stroke="#1B1B1B" stroke-width="1.01992"/>
<path d="M784.623 617.31H729.993L674.94 672.363H729.571L784.623 617.31ZM784.623 561.237H729.993L674.94 616.29H729.571L784.623 561.237Z" stroke="#1B1B1B" stroke-width="1.01992"/>
<path d="M784.624 729.456H729.993L674.94 784.508H729.571L784.624 729.456ZM784.624 673.383H729.993L674.94 728.436H729.571L784.624 673.383Z" stroke="#1B1B1B" stroke-width="1.01992"/>
<path d="M784.623 841.601H729.993L674.94 896.654H729.571L784.623 841.601ZM784.623 785.528H729.993L674.94 840.581H729.571L784.623 785.528Z" stroke="#1B1B1B" stroke-width="1.01992"/>
<path d="M896.769 56.5828L842.138 56.5828L787.086 111.636H841.716L896.769 56.5828ZM896.769 0.510071H842.138L787.086 55.5629H841.716L896.769 0.510071Z" stroke="#464646" stroke-width="1.01992"/>
<path d="M896.769 168.728H842.139L787.086 223.781H841.716L896.769 168.728ZM896.769 112.655H842.139L787.086 167.708H841.716L896.769 112.655Z" stroke="#1B1B1B" stroke-width="1.01992"/>
<path d="M896.769 280.874H842.138L787.086 335.926H841.716L896.769 280.874ZM896.769 224.801H842.138L787.086 279.854H841.716L896.769 224.801Z" stroke="#1B1B1B" stroke-width="1.01992"/>
<path d="M896.769 393.019H842.138L787.086 448.072H841.716L896.769 393.019ZM896.769 336.946H842.138L787.086 391.999H841.716L896.769 336.946Z" stroke="#464646" stroke-width="1.01992"/>
<path d="M896.769 505.165H842.138L787.086 560.218H841.716L896.769 505.165ZM896.769 449.092H842.138L787.086 504.145H841.716L896.769 449.092Z" stroke="#464646" stroke-width="1.01992"/>
<path d="M896.769 617.31H842.139L787.086 672.363H841.716L896.769 617.31ZM896.769 561.237H842.139L787.086 616.29H841.716L896.769 561.237Z" stroke="#1B1B1B" stroke-width="1.01992"/>
<path d="M896.769 729.456H842.138L787.086 784.508H841.716L896.769 729.456ZM896.769 673.383H842.138L787.086 728.436H841.716L896.769 673.383Z" stroke="#1B1B1B" stroke-width="1.01992"/>
<path d="M896.769 841.601H842.139L787.086 896.654H841.716L896.769 841.601ZM896.769 785.528H842.139L787.086 840.581H841.716L896.769 785.528Z" stroke="#1B1B1B" stroke-width="1.01992"/>
</g>
<defs>
<linearGradient id="paint0_linear_5_4" x1="683.679" y1="216.799" x2="729.782" y2="112.145" gradientUnits="userSpaceOnUse">
<stop stop-color="#201DA7"/>
<stop offset="1" stop-color="#30E29D"/>
</linearGradient>
</defs>
</svg>
