<svg width="25" height="25" viewBox="0 0 25 25" fill="none" xmlns="http://www.w3.org/2000/svg">
<path d="M12.9247 17.6387L12.8243 17.578L12.7239 17.6385L8.54422 20.1564L8.54388 20.1566C7.9263 20.5304 7.17051 19.9787 7.3331 19.2792C7.33311 19.2792 7.33311 19.2792 7.33312 19.2792L8.44096 14.5255L8.46757 14.4113L8.37896 14.3346L4.68274 11.1318L4.68267 11.1318C4.13741 10.6598 4.43166 9.76665 5.14497 9.70991L5.146 9.70983L10.0105 9.2969L10.1272 9.28699L10.1729 9.17924L12.0764 4.69745L12.0767 4.69669C12.3525 4.03972 13.2958 4.03972 13.5715 4.69669L13.5718 4.6973L15.4753 9.18917L15.521 9.29706L15.6378 9.30697L20.5023 9.7199L20.5033 9.71998C21.2166 9.77672 21.5109 10.6698 20.9656 11.1419L20.9655 11.1419L17.2693 14.3446L17.1807 14.4214L17.2073 14.5356L18.3152 19.2892C18.3152 19.2893 18.3152 19.2893 18.3152 19.2893C18.4778 19.9888 17.722 20.5405 17.1044 20.1667L17.1044 20.1667L12.9247 17.6387Z" stroke="#8E8E93" stroke-width="0.388638"/>
</svg>
