<svg width="8" height="11" viewBox="0 0 8 11" fill="none" xmlns="http://www.w3.org/2000/svg">
<path d="M0.753906 10.706V0.970947H4.62078C5.36702 0.970947 6.01432 1.21432 6.5627 1.70107C7.11107 2.18783 7.38525 2.80206 7.38525 3.54377C7.38525 3.98417 7.26654 4.38979 7.0291 4.76065C6.79166 5.13151 6.47507 5.41545 6.07934 5.61247V5.71677C6.56552 5.87902 6.95843 6.16875 7.25805 6.58597C7.55768 7.00318 7.70749 7.47255 7.70749 7.99407C7.70749 8.78215 7.4107 9.43115 6.8171 9.94108C6.2235 10.451 5.53096 10.706 4.7395 10.706H0.753906ZM2.21246 5.09095H4.51902C4.91475 5.09095 5.25678 4.95767 5.5451 4.69112C5.83342 4.42456 5.97758 4.08847 5.97758 3.68285C5.97758 3.27722 5.83342 2.93823 5.5451 2.66588C5.25678 2.39354 4.91475 2.25736 4.51902 2.25736H2.21246V5.09095ZM2.21246 9.38479H4.6547C5.08435 9.38479 5.45747 9.23992 5.77406 8.95019C6.09064 8.66046 6.24894 8.29539 6.24894 7.855C6.24894 7.42619 6.09064 7.06693 5.77406 6.77719C5.45747 6.48746 5.08435 6.34259 4.6547 6.34259H2.21246V9.38479Z" fill="black"/>
</svg>
