<svg width="25" height="24" viewBox="0 0 25 24" fill="none" xmlns="http://www.w3.org/2000/svg">
<path d="M6.92432 19V10C6.92432 8.4087 7.55646 6.88258 8.68168 5.75736C9.80689 4.63214 11.333 4 12.9243 4C14.5156 4 16.0417 4.63214 17.167 5.75736C18.2922 6.88258 18.9243 8.4087 18.9243 10V19M6.92432 19H18.9243M6.92432 19H4.92432M18.9243 19H20.9243M11.9243 22H13.9243" stroke="black" stroke-width="1.5" stroke-linecap="round" stroke-linejoin="round"/>
<path d="M12.9243 4C13.4766 4 13.9243 3.55228 13.9243 3C13.9243 2.44772 13.4766 2 12.9243 2C12.372 2 11.9243 2.44772 11.9243 3C11.9243 3.55228 12.372 4 12.9243 4Z" stroke="black" stroke-width="1.5"/>
</svg>
