<svg width="25" height="25" viewBox="0 0 25 25" fill="none" xmlns="http://www.w3.org/2000/svg">
<path d="M21.3634 22.418C19.2924 22.418 17.169 21.8994 14.9932 20.8623C12.8173 19.8252 10.7922 18.369 8.91789 16.4938C7.05827 14.6186 5.6099 12.5972 4.57278 10.4296C3.53565 8.26195 3.01709 6.14265 3.01709 4.07167C3.01709 3.70303 3.13997 3.39173 3.38574 3.13777C3.6315 2.88381 3.93871 2.75684 4.30735 2.75684H7.34623C7.68046 2.75684 7.9721 2.8621 8.22115 3.07264C8.47019 3.28318 8.63854 3.5527 8.72619 3.88121L9.33569 6.81194C9.39303 7.15601 9.38279 7.45626 9.30497 7.71267C9.22796 7.96908 9.09197 8.17921 8.897 8.34305L6.19974 10.8572C6.70437 11.7731 7.26185 12.6234 7.87216 13.4083C8.48248 14.1939 9.13375 14.9381 9.82599 15.641C10.5387 16.3537 11.3063 17.0173 12.1288 17.6317C12.9513 18.2453 13.8541 18.8245 14.8371 19.3693L17.4656 16.6941C17.6655 16.4787 17.8903 16.3365 18.1402 16.2677C18.39 16.1989 18.6661 16.1854 18.9684 16.2272L21.5539 16.7556C21.8873 16.8375 22.158 17.0054 22.3661 17.2594C22.5742 17.5142 22.6782 17.8062 22.6782 18.1355V21.1277C22.6782 21.4964 22.5512 21.8036 22.2973 22.0493C22.0433 22.2951 21.732 22.418 21.3634 22.418Z" fill="black"/>
</svg>
