<svg width="25" height="24" viewBox="0 0 25 24" fill="none" xmlns="http://www.w3.org/2000/svg">
<g clip-path="url(#clip0_218_1900)">
<path d="M24.9238 11.988C24.9238 5.37 19.5478 0 12.9238 0C6.29983 0 0.923828 5.37 0.923828 11.988C0.923828 15.633 2.57983 18.918 5.17183 21.123C5.19583 21.147 5.21983 21.147 5.21983 21.171C5.43583 21.339 5.65183 21.507 5.89183 21.675C6.01183 21.747 6.10783 21.8415 6.22783 21.9375C8.21093 23.282 10.5519 24.0005 12.9478 24C15.3438 24.0005 17.6847 23.282 19.6678 21.9375C19.7878 21.8655 19.8838 21.771 20.0038 21.6975C20.2198 21.531 20.4598 21.363 20.6758 21.195C20.6998 21.171 20.7238 21.171 20.7238 21.147C23.2678 18.9165 24.9238 15.633 24.9238 11.988ZM12.9238 22.4895C10.6678 22.4895 8.60383 21.7695 6.89983 20.571C6.92383 20.379 6.97183 20.1885 7.01983 19.9965C7.16284 19.4762 7.37258 18.9765 7.64383 18.51C7.90783 18.054 8.21983 17.646 8.60383 17.286C8.96383 16.926 9.39583 16.5915 9.82783 16.3275C10.2838 16.0635 10.7638 15.8715 11.2918 15.7275C11.8239 15.5841 12.3727 15.5119 12.9238 15.513C14.5598 15.5014 16.1357 16.129 17.3158 17.262C17.8678 17.814 18.2998 18.462 18.6118 19.2045C18.7798 19.6365 18.8998 20.0925 18.9718 20.571C17.2006 21.8162 15.089 22.4861 12.9238 22.4895ZM9.25183 11.3895C9.04036 10.9053 8.93402 10.3818 8.93983 9.8535C8.93983 9.327 9.03583 8.799 9.25183 8.319C9.46783 7.839 9.75583 7.4085 10.1158 7.0485C10.4758 6.6885 10.9078 6.402 11.3878 6.186C11.8678 5.97 12.3958 5.874 12.9238 5.874C13.4758 5.874 13.9798 5.97 14.4598 6.186C14.9398 6.402 15.3718 6.69 15.7318 7.0485C16.0918 7.4085 16.3798 7.8405 16.5958 8.319C16.8118 8.799 16.9078 9.327 16.9078 9.8535C16.9078 10.4055 16.8118 10.9095 16.5958 11.388C16.3874 11.8609 16.0946 12.2919 15.7318 12.66C15.3636 13.0222 14.9326 13.3145 14.4598 13.5225C13.4681 13.9301 12.3556 13.9301 11.3638 13.5225C10.891 13.3145 10.46 13.0222 10.0918 12.66C9.72855 12.2973 9.44277 11.866 9.25183 11.3895ZM20.3878 19.3485C20.3878 19.3005 20.3638 19.2765 20.3638 19.2285C20.1278 18.4776 19.7799 17.7666 19.3318 17.1195C18.8834 16.4676 18.3322 15.8926 17.6998 15.417C17.2169 15.0537 16.6934 14.7476 16.1398 14.505C16.3917 14.3389 16.625 14.1463 16.8358 13.9305C17.1936 13.5773 17.5079 13.1824 17.7718 12.7545C18.3034 11.8812 18.5779 10.8757 18.5638 9.8535C18.5713 9.09677 18.4243 8.34648 18.1318 7.6485C17.8431 6.97596 17.4275 6.36533 16.9078 5.85C16.3889 5.34005 15.7781 4.93289 15.1078 4.65C14.4087 4.35809 13.6574 4.21161 12.8998 4.2195C12.1421 4.21209 11.3909 4.35908 10.6918 4.6515C10.0157 4.93378 9.40349 5.34958 8.89183 5.874C8.38189 6.39238 7.97472 7.00263 7.69183 7.6725C7.3994 8.37048 7.25241 9.12077 7.25983 9.8775C7.25983 10.4055 7.33183 10.9095 7.47583 11.388C7.61983 11.892 7.81183 12.348 8.07583 12.7785C8.31583 13.2105 8.65183 13.5945 9.01183 13.9545C9.22783 14.1705 9.46783 14.361 9.73183 14.529C9.17658 14.7781 8.65291 15.0923 8.17183 15.465C7.54783 15.945 6.99583 16.5195 6.53983 17.1435C6.08722 17.7879 5.73895 18.4997 5.50783 19.2525C5.48383 19.3005 5.48383 19.3485 5.48383 19.3725C3.58783 17.454 2.41183 14.865 2.41183 11.988C2.41183 6.21 7.13983 1.4865 12.9238 1.4865C18.7078 1.4865 23.4358 6.21 23.4358 11.988C23.4327 14.7479 22.3368 17.3943 20.3878 19.3485Z" fill="black"/>
</g>
<defs>
<clipPath id="clip0_218_1900">
<rect width="24" height="24" fill="white" transform="translate(0.923828)"/>
</clipPath>
</defs>
</svg>
