<svg width="10" height="12" viewBox="0 0 10 12" fill="none" xmlns="http://www.w3.org/2000/svg">
<path d="M2.71993 1.43766L3.15597 0.970947L6.68492 4.74803C6.84041 4.91445 6.91816 5.11886 6.91816 5.36126C6.91816 5.60366 6.84041 5.80807 6.68492 5.97449L4.87988 7.90645C4.72439 8.07287 4.54186 8.15608 4.33229 8.15608C4.12272 8.15608 3.94018 8.07287 3.78469 7.90645L1.97966 5.97449C1.82417 5.80807 1.74642 5.60366 1.74642 5.36126C1.74642 5.11886 1.82417 4.91445 1.97966 4.74803L3.89624 2.69668L2.71993 1.43766ZM4.33229 3.16339L2.3143 5.32327H6.35028L4.33229 3.16339ZM7.75983 8.34059C7.55702 8.34059 7.38462 8.26462 7.24266 8.11267C7.10069 7.96072 7.0297 7.7762 7.0297 7.55913C7.0297 7.43612 7.05674 7.30226 7.11083 7.15754C7.16491 7.01283 7.23928 6.86449 7.33392 6.71254C7.38801 6.61848 7.45392 6.51718 7.53166 6.40864C7.60941 6.3001 7.68546 6.1988 7.75983 6.10474C7.83419 6.1988 7.91025 6.3001 7.98799 6.40864C8.06574 6.51718 8.13165 6.61848 8.18574 6.71254C8.28038 6.86449 8.35475 7.01283 8.40883 7.15754C8.46291 7.30226 8.48996 7.43612 8.48996 7.55913C8.48996 7.7762 8.41897 7.96072 8.277 8.11267C8.13503 8.26462 7.96264 8.34059 7.75983 8.34059ZM0.945312 11.4013V10.088H9.05783V11.4013H0.945312Z" fill="black"/>
</svg>
