<svg width="20" height="11" viewBox="0 0 20 11" fill="none" xmlns="http://www.w3.org/2000/svg">
<path d="M19.78 0.297991C19.6394 0.15754 19.4488 0.0786514 19.25 0.0786514C19.0513 0.0786514 18.8607 0.15754 18.72 0.297991L10 9.01799L1.28003 0.297991C1.13785 0.165511 0.949808 0.0933886 0.755507 0.096817C0.561206 0.100245 0.375821 0.178957 0.238408 0.31637C0.100995 0.453783 0.0222829 0.639169 0.0188546 0.833469C0.0154264 1.02777 0.0875494 1.21582 0.220029 1.35799L9.47003 10.608C9.61065 10.7484 9.80128 10.8273 10 10.8273C10.1988 10.8273 10.3894 10.7484 10.53 10.608L19.78 1.35799C19.9205 1.21737 19.9994 1.02674 19.9994 0.827991C19.9994 0.629241 19.9205 0.438616 19.78 0.297991Z" fill="black"/>
</svg>
