<svg width="19" height="20" viewBox="0 0 19 20" fill="none" xmlns="http://www.w3.org/2000/svg">
<path d="M2.35352 17.1424V13.8086L12.7079 3.47378C12.8648 3.32997 13.0382 3.21884 13.228 3.1404C13.4178 3.06196 13.6171 3.02274 13.8257 3.02274C14.0344 3.02274 14.237 3.06196 14.4336 3.1404C14.6303 3.21884 14.8002 3.33651 14.9435 3.49339L16.0221 4.59158C16.179 4.73539 16.2935 4.90535 16.3657 5.10146C16.4378 5.29756 16.4737 5.49367 16.4731 5.68978C16.4731 5.89896 16.4373 6.09846 16.3657 6.28829C16.294 6.47812 16.1795 6.65122 16.0221 6.80758L5.68732 17.1424H2.35352ZM13.8061 6.78797L14.9043 5.68978L13.8061 4.59158L12.7079 5.68978L13.8061 6.78797Z" fill="black"/>
</svg>
