<svg width="24" height="25" viewBox="0 0 24 25" fill="none" xmlns="http://www.w3.org/2000/svg">
<g opacity="0.8">
<path d="M21.375 17.01C21.2894 17.0589 21.1949 17.0904 21.0971 17.1027C20.9992 17.115 20.8999 17.1078 20.8048 17.0817C20.7097 17.0556 20.6207 17.011 20.5429 16.9504C20.4651 16.8899 20.3999 16.8145 20.3513 16.7288L18.57 13.6163C17.5345 14.3165 16.3921 14.844 15.1875 15.1782L15.7378 18.48C15.7541 18.5772 15.751 18.6767 15.7288 18.7727C15.7065 18.8687 15.6656 18.9594 15.6083 19.0396C15.551 19.1198 15.4785 19.1879 15.3949 19.24C15.3113 19.2922 15.2182 19.3273 15.121 19.3435C15.081 19.35 15.0405 19.3535 15 19.3538C14.8226 19.3535 14.651 19.2903 14.5157 19.1755C14.3805 19.0607 14.2903 18.9016 14.2613 18.7266L13.7203 15.4847C12.5796 15.6435 11.4223 15.6435 10.2816 15.4847L9.74064 18.7266C9.71153 18.9019 9.62109 19.0613 9.48545 19.1761C9.3498 19.291 9.17776 19.354 9.00001 19.3538C8.95856 19.3536 8.91718 19.3502 8.87626 19.3435C8.77904 19.3273 8.68596 19.2922 8.60233 19.24C8.5187 19.1879 8.44617 19.1198 8.38888 19.0396C8.33159 18.9594 8.29067 18.8687 8.26845 18.7727C8.24623 18.6767 8.24315 18.5772 8.25939 18.48L8.81251 15.1782C7.6084 14.8429 6.46668 14.3145 5.43189 13.6135L3.65626 16.7288C3.60702 16.8146 3.54135 16.8899 3.46302 16.9503C3.38468 17.0107 3.29521 17.0551 3.19971 17.081C3.10421 17.1068 3.00455 17.1136 2.90643 17.101C2.80831 17.0883 2.71364 17.0565 2.62783 17.0072C2.54202 16.958 2.46674 16.8923 2.40631 16.814C2.34588 16.7356 2.30147 16.6462 2.27561 16.5507C2.24976 16.4552 2.24296 16.3555 2.25562 16.2574C2.26828 16.1593 2.30014 16.0646 2.34939 15.9788L4.22439 12.6975C3.5658 12.1285 2.9602 11.501 2.41501 10.8225C2.34702 10.7466 2.29522 10.6576 2.26276 10.561C2.2303 10.4644 2.21787 10.3622 2.22622 10.2607C2.23457 10.1591 2.26353 10.0603 2.31133 9.97033C2.35914 9.88033 2.42478 9.80102 2.50426 9.73723C2.58373 9.67345 2.67537 9.62653 2.77359 9.59934C2.8718 9.57215 2.97452 9.56526 3.07548 9.57909C3.17645 9.59292 3.27353 9.62718 3.36082 9.67978C3.4481 9.73238 3.52374 9.80222 3.58314 9.88503C5.13939 11.8107 7.86189 14.1038 12 14.1038C16.1381 14.1038 18.8606 11.8078 20.4169 9.88503C20.4756 9.80052 20.5511 9.72901 20.6386 9.67492C20.7262 9.62084 20.8239 9.58536 20.9257 9.57067C21.0276 9.55598 21.1314 9.56241 21.2306 9.58955C21.3299 9.61669 21.4225 9.66397 21.5027 9.72844C21.5829 9.79291 21.649 9.87319 21.6968 9.9643C21.7447 10.0554 21.7732 10.1554 21.7808 10.258C21.7883 10.3606 21.7747 10.4637 21.7407 10.5608C21.7067 10.6579 21.653 10.747 21.5831 10.8225C21.038 11.501 20.4323 12.1285 19.7738 12.6975L21.6488 15.9788C21.6991 16.0643 21.732 16.159 21.7454 16.2573C21.7589 16.3556 21.7527 16.4557 21.7273 16.5516C21.7018 16.6475 21.6576 16.7374 21.5971 16.8161C21.5366 16.8948 21.4611 16.9607 21.375 17.01Z" fill="black"/>
</g>
</svg>
