<svg width="25" height="25" viewBox="0 0 25 25" fill="none" xmlns="http://www.w3.org/2000/svg">
<path d="M19.9238 3.44629H5.92383C4.50983 3.44629 3.80283 3.44629 3.36383 3.85829C2.92383 4.27029 2.92383 4.93429 2.92383 6.26129V6.95129C2.92383 7.98829 2.92383 8.50729 3.18383 8.93729C3.44383 9.36729 3.91683 9.63529 4.86583 10.1693L7.77883 11.8093C8.41483 12.1673 8.73383 12.3463 8.96183 12.5443C9.43583 12.9553 9.72783 13.4393 9.85983 14.0343C9.92383 14.3183 9.92383 14.6523 9.92383 15.3193V17.9893C9.92383 18.8983 9.92383 19.3533 10.1758 19.7073C10.4278 20.0623 10.8758 20.2373 11.7698 20.5873C13.6488 21.3213 14.5878 21.6883 15.2558 21.2703C15.9238 20.8533 15.9238 19.8983 15.9238 17.9883V15.3183C15.9238 14.6523 15.9238 14.3183 15.9878 14.0333C16.1134 13.4504 16.4298 12.9261 16.8868 12.5433C17.1138 12.3463 17.4328 12.1673 18.0688 11.8083L20.9818 10.1683C21.9298 9.63529 22.4048 9.36829 22.6638 8.93829C22.9238 8.50829 22.9238 7.98829 22.9238 6.95029V6.26029C22.9238 4.93429 22.9238 4.27029 22.4838 3.85829C22.0458 3.44629 21.3388 3.44629 19.9238 3.44629Z" stroke="black" stroke-width="1.5"/>
</svg>
