<svg width="18" height="19" viewBox="0 0 18 19" fill="none" xmlns="http://www.w3.org/2000/svg">
<path d="M8.24993 15.5C8.03743 15.5 7.85943 15.428 7.71593 15.284C7.57243 15.14 7.50043 14.962 7.49993 14.75V10.25L3.14993 4.7C2.96243 4.45 2.93443 4.1875 3.06593 3.9125C3.19743 3.6375 3.42543 3.5 3.74993 3.5H14.2499C14.5749 3.5 14.8032 3.6375 14.9347 3.9125C15.0662 4.1875 15.0379 4.45 14.8499 4.7L10.4999 10.25V14.75C10.4999 14.9625 10.4279 15.1407 10.2839 15.2847C10.1399 15.4287 9.96193 15.5005 9.74993 15.5H8.24993Z" fill="black"/>
</svg>
