<svg width="29" height="29" viewBox="0 0 29 29" fill="none" xmlns="http://www.w3.org/2000/svg">
<circle cx="14.3218" cy="14.5018" r="14.3218" fill="#BA4614"/>
<path d="M13.4214 5.38617C13.7859 4.63497 14.8561 4.63497 15.2207 5.38617L17.2794 9.62832C17.4252 9.92866 17.7112 10.1365 18.0418 10.1823L22.7125 10.8293C23.5396 10.9439 23.8703 11.9617 23.2686 12.5406L19.8702 15.8094C19.6296 16.0408 19.5204 16.3771 19.579 16.7057L20.4069 21.3477C20.5535 22.1698 19.6877 22.7988 18.9513 22.4054L14.7923 20.1835C14.4978 20.0262 14.1443 20.0262 13.8498 20.1835L9.69083 22.4054C8.95436 22.7988 8.08855 22.1698 8.23516 21.3477L9.0631 16.7057C9.12172 16.3771 9.01248 16.0408 8.77188 15.8094L5.37353 12.5406C4.77175 11.9617 5.10246 10.9439 5.92954 10.8293L10.6002 10.1823C10.9309 10.1365 11.2169 9.92866 11.3627 9.62832L13.4214 5.38617Z" fill="white"/>
</svg>
