<svg width="121" height="22" viewBox="0 0 121 22" fill="none" xmlns="http://www.w3.org/2000/svg">
<g clip-path="url(#clip0_218_1883)">
<path fill-rule="evenodd" clip-rule="evenodd" d="M7.9619 18.9619H0L7.9619 11H0L7.9619 3.03811H15.9238L7.9619 11H15.9238L7.9619 18.9619Z" fill="url(#paint0_linear_218_1883)"/>
</g>
<path d="M23.8485 17H20.4639V4.93802H27.143C30.0055 4.93802 31.8058 6.57629 31.8058 9.43876C31.8058 12.3012 30.0055 13.9575 27.143 13.9575H23.8485V17ZM26.765 7.98052H23.8485V10.915H26.765C27.9531 10.915 28.4392 10.681 28.4392 9.43876C28.4392 8.21456 27.9531 7.98052 26.765 7.98052ZM35.603 17H31.8044L37.0072 4.93802H41.85L47.0709 17H43.1822L42.2641 14.7676H36.5391L35.603 17ZM38.5195 10.0329L37.8174 11.7251H41.0219L40.3198 10.0329L39.5276 7.99852H39.2936L38.5195 10.0329ZM50.8177 17H47.4332V4.93802H54.4723C57.6589 4.93802 59.3331 6.27024 59.3331 8.62863C59.3331 10.5369 58.379 11.6711 56.0746 11.9592V12.1392C57.3168 12.4633 57.7129 13.0574 58.1629 13.9755L59.6572 17H55.7506L54.3103 14.0475C53.8782 13.1474 53.5182 12.8953 52.204 12.8953H50.8177V17ZM50.8177 7.98052V10.3749H54.4363C55.4265 10.3749 55.7866 10.1949 55.7866 9.16871C55.7866 8.21456 55.4265 7.98052 54.4363 7.98052H50.8177ZM63.2755 17H59.4769L64.6797 4.93802H69.5225L74.7434 17H70.8547L69.9366 14.7676H64.2117L63.2755 17ZM66.192 10.0329L65.4899 11.7251H68.6944L67.9923 10.0329L67.2001 7.99852H66.9661L66.192 10.0329ZM85.4574 17H75.1057V4.93802H78.4903V13.9575H85.4574V17ZM96.7092 17H86.3575V4.93802H89.7421V13.9575H96.7092V17ZM108.321 17H97.6094V4.93802H108.321V7.98052H100.994V9.42076H108.051V12.4453H100.994V13.9575H108.321V17ZM119.635 17H109.283V4.93802H112.668V13.9575H119.635V17Z" fill="#010101"/>
<defs>
<linearGradient id="paint0_linear_218_1883" x1="1.63219" y1="17.688" x2="7.9619" y2="3.03811" gradientUnits="userSpaceOnUse">
<stop stop-color="#201DA7"/>
<stop offset="1" stop-color="#30E29D"/>
</linearGradient>
<clipPath id="clip0_218_1883">
<rect width="15.9238" height="15.9238" fill="white" transform="translate(0 3.03809)"/>
</clipPath>
</defs>
</svg>
