<svg width="25" height="25" viewBox="0 0 25 25" fill="none" xmlns="http://www.w3.org/2000/svg">
<path d="M12.5918 2.32031C11.2786 2.32031 9.97822 2.57897 8.76496 3.08152C7.55171 3.58406 6.44931 4.32066 5.52073 5.24924C3.64537 7.12461 2.5918 9.66815 2.5918 12.3203C2.5918 16.7403 5.4618 20.4903 9.4318 21.8203C9.9318 21.9003 10.0918 21.5903 10.0918 21.3203V19.6303C7.3218 20.2303 6.7318 18.2903 6.7318 18.2903C6.2718 17.1303 5.6218 16.8203 5.6218 16.8203C4.7118 16.2003 5.6918 16.2203 5.6918 16.2203C6.6918 16.2903 7.2218 17.2503 7.2218 17.2503C8.0918 18.7703 9.5618 18.3203 10.1318 18.0803C10.2218 17.4303 10.4818 16.9903 10.7618 16.7403C8.5418 16.4903 6.2118 15.6303 6.2118 11.8203C6.2118 10.7103 6.5918 9.82031 7.2418 9.11031C7.1418 8.86031 6.7918 7.82031 7.3418 6.47031C7.3418 6.47031 8.1818 6.20031 10.0918 7.49031C10.8818 7.27031 11.7418 7.16031 12.5918 7.16031C13.4418 7.16031 14.3018 7.27031 15.0918 7.49031C17.0018 6.20031 17.8418 6.47031 17.8418 6.47031C18.3918 7.82031 18.0418 8.86031 17.9418 9.11031C18.5918 9.82031 18.9718 10.7103 18.9718 11.8203C18.9718 15.6403 16.6318 16.4803 14.4018 16.7303C14.7618 17.0403 15.0918 17.6503 15.0918 18.5803V21.3203C15.0918 21.5903 15.2518 21.9103 15.7618 21.8203C19.7318 20.4803 22.5918 16.7403 22.5918 12.3203C22.5918 11.0071 22.3331 9.70673 21.8306 8.49348C21.328 7.28022 20.5914 6.17783 19.6629 5.24924C18.7343 4.32066 17.6319 3.58406 16.4186 3.08152C15.2054 2.57897 13.905 2.32031 12.5918 2.32031Z" fill="black"/>
</svg>
