<svg width="27" height="27" viewBox="0 0 27 27" fill="none" xmlns="http://www.w3.org/2000/svg">
<path d="M22.5914 13.4732C22.5914 13.6346 22.5273 13.7894 22.4131 13.9035C22.299 14.0176 22.1442 14.0817 21.9828 14.0817H13.666V22.3986C13.666 22.56 13.6018 22.7148 13.4877 22.8289C13.3736 22.943 13.2188 23.0071 13.0574 23.0071C12.896 23.0071 12.7412 22.943 12.6271 22.8289C12.513 22.7148 12.4489 22.56 12.4489 22.3986V14.0817H4.13199C3.97059 14.0817 3.8158 14.0176 3.70168 13.9035C3.58755 13.7894 3.52344 13.6346 3.52344 13.4732C3.52344 13.3118 3.58755 13.157 3.70168 13.0429C3.8158 12.9287 3.97059 12.8646 4.13199 12.8646H12.4489V4.54776C12.4489 4.38636 12.513 4.23157 12.6271 4.11745C12.7412 4.00332 12.896 3.93921 13.0574 3.93921C13.2188 3.93921 13.3736 4.00332 13.4877 4.11745C13.6018 4.23157 13.666 4.38636 13.666 4.54776V12.8646H21.9828C22.1442 12.8646 22.299 12.9287 22.4131 13.0429C22.5273 13.157 22.5914 13.3118 22.5914 13.4732Z" fill="black"/>
</svg>
