<svg width="25" height="25" viewBox="0 0 25 25" fill="none" xmlns="http://www.w3.org/2000/svg">
<path d="M19.5918 3.32031C20.1222 3.32031 20.6309 3.53103 21.006 3.9061C21.3811 4.28117 21.5918 4.78988 21.5918 5.32031V19.3203C21.5918 19.8507 21.3811 20.3595 21.006 20.7345C20.6309 21.1096 20.1222 21.3203 19.5918 21.3203H5.5918C5.06136 21.3203 4.55266 21.1096 4.17758 20.7345C3.80251 20.3595 3.5918 19.8507 3.5918 19.3203V5.32031C3.5918 4.78988 3.80251 4.28117 4.17758 3.9061C4.55266 3.53103 5.06136 3.32031 5.5918 3.32031H19.5918ZM19.0918 18.8203V13.5203C19.0918 12.6557 18.7483 11.8265 18.137 11.2151C17.5256 10.6038 16.6964 10.2603 15.8318 10.2603C14.9818 10.2603 13.9918 10.7803 13.5118 11.5603V10.4503H10.7218V18.8203H13.5118V13.8903C13.5118 13.1203 14.1318 12.4903 14.9018 12.4903C15.2731 12.4903 15.6292 12.6378 15.8917 12.9004C16.1543 13.1629 16.3018 13.519 16.3018 13.8903V18.8203H19.0918ZM7.4718 8.88031C7.91736 8.88031 8.34468 8.70331 8.65974 8.38825C8.9748 8.07319 9.1518 7.64588 9.1518 7.20031C9.1518 6.27031 8.4018 5.51031 7.4718 5.51031C7.02358 5.51031 6.59372 5.68837 6.27679 6.0053C5.95985 6.32224 5.7818 6.7521 5.7818 7.20031C5.7818 8.13031 6.5418 8.88031 7.4718 8.88031ZM8.8618 18.8203V10.4503H6.0918V18.8203H8.8618Z" fill="black"/>
</svg>
