<svg width="29" height="30" viewBox="0 0 29 30" fill="none" xmlns="http://www.w3.org/2000/svg">
<circle cx="14.3218" cy="14.8718" r="14.3218" fill="#3F3F3F"/>
<path d="M9.36788 22.7879C8.91007 22.7879 8.5183 22.625 8.19256 22.2993C7.86683 21.9736 7.70368 21.5815 7.70312 21.1231V12.7994C7.70312 12.3416 7.86627 11.9498 8.19256 11.6241C8.51885 11.2983 8.91063 11.1352 9.36788 11.1346H10.2003V9.46987C10.2003 8.31841 10.6062 7.33704 11.418 6.52575C12.2299 5.71446 13.2112 5.30854 14.3621 5.30798C15.513 5.30743 16.4947 5.71335 17.3071 6.52575C18.1195 7.33815 18.5251 8.31952 18.524 9.46987V11.1346H19.3564C19.8142 11.1346 20.2063 11.2978 20.5326 11.6241C20.8588 11.9504 21.0217 12.3421 21.0212 12.7994V21.1231C21.0212 21.581 20.8583 21.973 20.5326 22.2993C20.2068 22.6256 19.8148 22.7885 19.3564 22.7879H9.36788ZM14.3621 18.626C14.8199 18.626 15.212 18.4632 15.5383 18.1374C15.8646 17.8117 16.0275 17.4196 16.0269 16.9613C16.0263 16.5029 15.8635 16.1111 15.5383 15.7859C15.2131 15.4608 14.8211 15.2976 14.3621 15.2965C13.9032 15.2954 13.5115 15.4585 13.1868 15.7859C12.8622 16.1133 12.6991 16.5051 12.6974 16.9613C12.6957 17.4174 12.8589 17.8095 13.1868 18.1374C13.5148 18.4654 13.9066 18.6282 14.3621 18.626ZM11.865 11.1346H16.8593V9.46987C16.8593 8.77622 16.6165 8.18662 16.1309 7.70107C15.6454 7.21551 15.0558 6.97274 14.3621 6.97274C13.6685 6.97274 13.0789 7.21551 12.5933 7.70107C12.1078 8.18662 11.865 8.77622 11.865 9.46987V11.1346Z" fill="white"/>
</svg>
