<svg width="128" height="25" viewBox="0 0 128 25" fill="none" xmlns="http://www.w3.org/2000/svg">
<g clip-path="url(#clip0_5_153)">
<path fill-rule="evenodd" clip-rule="evenodd" d="M8.52763 20.6561H0L8.52763 12.1285H0L8.52763 3.60087H17.0553L8.52763 12.1285L17.0553 12.1285L8.52763 20.6561Z" fill="url(#paint0_linear_5_153)"/>
</g>
<path d="M23.9933 18.1285H20.3683V5.20944H27.5219C30.5878 5.20944 32.516 6.96412 32.516 10.03C32.516 13.0958 30.5878 14.8698 27.5219 14.8698H23.9933V18.1285ZM27.117 8.46812H23.9933V11.6111H27.117C28.3896 11.6111 28.9102 11.3604 28.9102 10.03C28.9102 8.71879 28.3896 8.46812 27.117 8.46812ZM36.583 18.1285H32.5145L38.087 5.20944H43.2739L48.8658 18.1285H44.7008L43.7174 15.7375H37.5857L36.583 18.1285ZM39.7067 10.6663L38.9547 12.4788H42.387L41.635 10.6663L40.7865 8.48741H40.5359L39.7067 10.6663ZM52.8789 18.1285H49.2538V5.20944H56.7931C60.2061 5.20944 61.9993 6.63632 61.9993 9.16228C61.9993 11.2062 60.9774 12.421 58.5092 12.7295V12.9223C59.8397 13.2694 60.2639 13.9057 60.746 14.8891L62.3464 18.1285H58.1622L56.6196 14.9662C56.1568 14.0021 55.7712 13.7321 54.3636 13.7321H52.8789V18.1285ZM52.8789 8.46812V11.0326H56.7546C57.8151 11.0326 58.2007 10.8398 58.2007 9.74075C58.2007 8.71879 57.8151 8.46812 56.7546 8.46812H52.8789ZM66.2218 18.1285H62.1533L67.7258 5.20944H72.9127L78.5045 18.1285H74.3396L73.3562 15.7375H67.2245L66.2218 18.1285ZM69.3455 10.6663L68.5935 12.4788H72.0257L71.2737 10.6663L70.4253 8.48741H70.1746L69.3455 10.6663ZM89.9798 18.1285H78.8926V5.20944H82.5176V14.8698H89.9798V18.1285ZM102.031 18.1285H90.9439V5.20944H94.569V14.8698H102.031V18.1285ZM114.468 18.1285H102.995V5.20944H114.468V8.46812H106.62V10.0107H114.179V13.2501H106.62V14.8698H114.468V18.1285ZM126.586 18.1285H115.499V5.20944H119.124V14.8698H126.586V18.1285Z" fill="black"/>
<defs>
<linearGradient id="paint0_linear_5_153" x1="1.74816" y1="19.2917" x2="8.52763" y2="3.60087" gradientUnits="userSpaceOnUse">
<stop stop-color="#201DA7"/>
<stop offset="1" stop-color="#30E29D"/>
</linearGradient>
<clipPath id="clip0_5_153">
<rect width="17.0553" height="17.0553" fill="white" transform="translate(0 3.60086)"/>
</clipPath>
</defs>
</svg>
