<svg width="19" height="19" viewBox="0 0 19 19" fill="none" xmlns="http://www.w3.org/2000/svg">
<path d="M3.51471 15.9415C3.09763 15.9415 2.74071 15.7931 2.44395 15.4963C2.14719 15.1996 1.99855 14.8424 1.99805 14.4248V5.32479C1.99805 4.9077 2.14668 4.55078 2.44395 4.25402C2.74121 3.95726 3.09814 3.80863 3.51471 3.80812H15.648C16.0651 3.80812 16.4223 3.95675 16.7196 4.25402C17.0168 4.55129 17.1652 4.90821 17.1647 5.32479V14.4248C17.1647 14.8419 17.0163 15.199 16.7196 15.4963C16.4228 15.7936 16.0656 15.942 15.648 15.9415H3.51471ZM9.58138 10.6331L15.648 6.84145V5.32479L9.58138 9.11645L3.51471 5.32479V6.84145L9.58138 10.6331Z" fill="black"/>
</svg>
