<svg width="112" height="112" viewBox="0 0 112 112" fill="none" xmlns="http://www.w3.org/2000/svg">
<path d="M86.9395 68.5479C88.565 64.6004 89.4474 60.3742 89.4474 55.73C89.4474 52.3862 88.9365 49.1817 88.0541 46.2094C85.0354 46.9061 81.8774 47.2776 78.58 47.2776C71.8273 47.2849 65.1717 45.6685 59.1745 42.5648C53.1773 39.4611 48.0141 34.9611 44.1203 29.444C39.9589 39.5253 32.0999 47.6336 22.1534 52.1075C21.9676 53.2686 21.9676 54.5225 21.9676 55.73C21.9676 60.1638 22.8409 64.5542 24.5377 68.6506C26.2345 72.7469 28.7214 76.4689 31.8566 79.6041C38.1884 85.9359 46.7762 89.4931 55.7307 89.4931C60.6071 89.4931 65.2977 88.4249 69.5239 86.5208C72.1711 91.583 73.3786 94.0908 73.2857 94.0908C65.6692 96.6451 59.7712 97.899 55.7307 97.899C44.4918 97.899 33.7638 93.4871 25.8687 85.5455C21.0623 80.7617 17.4919 74.8802 15.4658 68.4086H9.28906V47.2776H14.3512C15.8849 39.8122 19.411 32.9012 24.5553 27.2779C29.6996 21.6547 36.2703 17.529 43.5701 15.3386C50.8699 13.1481 58.6265 12.9747 66.0169 14.8367C73.4073 16.6988 80.1558 20.5267 85.5463 25.9144C91.3969 31.7456 95.3886 39.1795 97.0174 47.2776H102.172V68.4086H101.894L85.3605 83.595L60.7464 80.8085V73.0527H83.1777L86.9395 68.5479ZM43.0522 54.6618C44.4454 54.6618 45.7922 55.2191 46.7675 56.2408C47.7476 57.229 48.2976 58.5644 48.2976 59.9562C48.2976 61.348 47.7476 62.6834 46.7675 63.6715C45.7922 64.6468 44.4454 65.2041 43.0522 65.2041C40.1263 65.2041 37.7578 62.882 37.7578 59.9562C37.7578 57.0304 40.1263 54.6618 43.0522 54.6618ZM68.3629 54.6618C71.2887 54.6618 73.6108 57.0304 73.6108 59.9562C73.6108 62.882 71.2887 65.2041 68.3629 65.2041C65.437 65.2041 63.0685 62.882 63.0685 59.9562C63.0685 58.552 63.6263 57.2054 64.6192 56.2125C65.6121 55.2196 66.9587 54.6618 68.3629 54.6618Z" fill="black"/>
</svg>
