<svg width="164" height="177" viewBox="0 0 164 177" fill="none" xmlns="http://www.w3.org/2000/svg">
<path d="M10.6233 135.05C12.2347 130.5 11.5539 126.464 10.6232 120.95C9.45991 114.058 7.52103 98.5824 17.3447 88.6989C25.2036 80.7921 34.1483 76.7347 37.6383 75.6943" stroke="black" stroke-width="1.89579" stroke-linecap="round"/>
<path d="M30.4336 134.86C30.9956 132.891 36.5206 124.331 35.8181 118.556C35.5653 116.913 35.7423 113.134 39.2306 111.163" stroke="black" stroke-width="1.89579" stroke-linecap="round"/>
<path d="M27.2871 96.1858C29.9412 91.8255 37.1452 86.1382 42.8326 85.1903C48.52 84.2424 49.0229 88.1088 48.2896 89.7503C47.1896 92.2126 44.7956 94.934 40.0074 100.118C35.2639 105.253 32.6743 114.762 32.3723 119.298" stroke="black" stroke-width="1.89579" stroke-linecap="round"/>
<path d="M121.278 80.8413C117.592 77.6781 108.425 72.0797 101.245 74.9915C100.594 75.2515 99.2413 76.4735 99.0332 79.2814" stroke="black" stroke-width="1.89579" stroke-linecap="round"/>
<path d="M113.547 108.129C106.343 99.9774 102.172 93.5317 103.12 85.3798C103.648 80.8362 106.265 78.9625 108.661 81.2312C111.84 84.2423 114.305 88.0339 117.767 89.5508C118.445 89.8667 120.599 90.4984 123.784 90.4984" stroke="black" stroke-width="1.89579" stroke-linecap="round"/>
<path d="M140.011 126.339C139.664 124.953 138.944 120.515 139.361 116.979C139.881 112.56 139.41 95.8769 132.125 91.0671" stroke="black" stroke-width="1.89579" stroke-linecap="round"/>
<path d="M138.95 82.3466L94.082 79.1159C93.9977 79.1098 93.9088 79.1188 93.8274 79.1413C87.0215 81.0207 89.927 84.7855 92.3276 86.755C92.4417 86.8486 92.5813 86.9036 92.7283 86.917L102.93 87.8444" stroke="black" stroke-width="1.89579" stroke-linecap="round"/>
<path d="M138.76 91.4463L123.777 90.4644" stroke="black" stroke-width="1.89579" stroke-linecap="round"/>
<ellipse cx="138.684" cy="86.8794" rx="3.98117" ry="5.4978" fill="black"/>
<path d="M133.646 90.5428C130.914 86.7342 132.983 83.7002 134.555 82.4955C134.686 82.3951 134.85 82.3508 135.014 82.3585L139.521 82.5679C139.939 82.5873 140.262 82.9413 140.243 83.3591L139.919 90.6411C139.899 91.0777 139.516 91.4076 139.081 91.3615L134.164 90.8399C133.958 90.8181 133.767 90.7114 133.646 90.5428Z" fill="black"/>
<path d="M86.9257 81.4985L89.1143 80.804C89.6377 80.6379 90.1586 81.066 90.0972 81.6117L89.8888 83.4636C89.8274 84.0085 89.2259 84.3102 88.7525 84.0335L86.7723 82.876C86.205 82.5444 86.2993 81.6973 86.9257 81.4985Z" fill="black"/>
<path d="M39.0753 85.9485L37.2598 35.8756C37.2596 28.4855 38.6344 15.9614 53.9893 16.1688C69.3441 16.3762 77.6786 16.2552 79.9265 16.1688" stroke="black" stroke-width="1.89579" stroke-linecap="round"/>
<path d="M97.5625 16.1689H123.37C130.503 16.2986 136.598 19.4102 136.598 31.338C136.598 43.2658 136.245 68.2009 135.726 81.2092" stroke="black" stroke-width="1.89579" stroke-linecap="round"/>
<path d="M114.115 143.012C103.48 143.79 75.0405 145.862 57.8787 146.597C50.6163 146.597 40.9935 145.664 39.8523 132.595L39.0742 101.349" stroke="black" stroke-width="1.89579" stroke-linecap="round"/>
<circle cx="88.6348" cy="10.2893" r="4.92907" stroke="black" stroke-width="1.89579"/>
<path d="M80.5943 13.4983C81.5247 16.1896 80.2067 18.1562 77.2347 18.8032C75.8133 19.1127 73.8234 19.1396 69.9985 20.4853C65.2175 22.1673 64.3129 26.9547 64.1837 31.0952C64.0803 34.4076 65.9928 35.4944 69.3524 35.6238C79.1299 35.5807 100.072 35.8826 105.663 35.8826C111.477 35.8826 112.323 33.683 112.511 32.2597C113.441 25.2209 110.961 22.3992 108.764 21.391C107.73 20.9166 104.706 19.7348 100.882 18.8032C97.0567 17.8717 96.3679 16.6036 96.7466 14.7921C97.6769 10.3411 97.1342 6.72686 96.7466 5.47611C96.3158 3.75092 93.8004 0.455794 87.1844 1.07686C78.9145 1.8532 79.4314 10.1341 80.5943 13.4983Z" stroke="black" stroke-width="1.89579" stroke-linecap="round"/>
<path d="M125.869 80.2611L126.362 32.2976C126.362 31.2622 125.775 29.4502 123.384 29.4502C120.925 29.4502 115.401 29.5365 112.898 29.4502" stroke="black" stroke-width="1.89579" stroke-linecap="round"/>
<path d="M63.5755 29.4505H51.6657C50.3712 29.321 47.8857 30.0717 48.2999 34.1099C48.7142 38.1481 50.7164 100.766 51.6657 131.57C51.6226 133.123 52.313 136.178 55.4199 135.971C57.7835 135.813 94.5647 133.742 116.579 132.775" stroke="black" stroke-width="1.89579" stroke-linecap="round"/>
<path d="M129.471 80.8299L130.153 33.1877C130.153 31.7612 129.531 29.6862 126.01 30.2049" stroke="black" stroke-width="1.89579" stroke-linecap="round"/>
<path d="M49.3677 29.8162C48.073 29.8161 45.0955 29.8162 45.2248 33.1879C45.349 36.4284 46.5194 69.6114 46.9078 85.0008" stroke="black" stroke-width="1.89579" stroke-linecap="round"/>
<path d="M46.9082 92.4543L48.0734 132.916C48.2028 134.343 48.7207 136.418 54.9349 135.899" stroke="black" stroke-width="1.89579" stroke-linecap="round"/>
<path d="M61.9043 51.8074H86.1705" stroke="black" stroke-width="1.89579" stroke-linecap="round"/>
<path d="M62.0684 60.416L114.458 60.1567" stroke="black" stroke-width="1.89579" stroke-linecap="round"/>
<path d="M62.1973 69.1045L103.305 68.7155" stroke="black" stroke-width="1.89579" stroke-linecap="round"/>
<path d="M62.5912 82.5985L82.8148 81.6831" stroke="black" stroke-width="1.89579" stroke-linecap="round"/>
<path d="M130.987 81.7778C130.039 83.5472 127.953 85.9486 130.228 90.4985" stroke="black" stroke-width="1.89579" stroke-linecap="round"/>
<path d="M100.845 102.858C99.5815 104.362 98.8738 108.66 106.154 113.817C109.756 116.155 117.225 123.258 118.287 132.964" stroke="black" stroke-width="1.89579" stroke-linecap="round"/>
<path d="M98.9493 87.6548C98.2719 88.9249 97.9746 91.3693 100.087 93.7109C101.127 94.8645 102.753 95.9931 105.205 96.9442" stroke="black" stroke-width="1.89579" stroke-linecap="round"/>
<path d="M100.087 93.7109C98.7315 95.6713 97.4959 99.6911 100.845 102.858C101.712 103.678 104.593 105.199 106.153 105.854" stroke="black" stroke-width="1.89579" stroke-linecap="round"/>
<path d="M126.412 166.144C122.368 156.728 116.706 136.342 126.412 130.124C138.545 122.351 154.28 139.982 159.778 155.148" stroke="black" stroke-width="1.89579" stroke-linecap="round"/>
<path d="M2.75586 158.747C3.70376 149.9 10.3011 131.843 21.5242 134.118C32.7473 136.393 35.8059 156.678 35.9323 166.536" stroke="black" stroke-width="1.89579" stroke-linecap="round"/>
</svg>
