<svg width="164" height="172" viewBox="0 0 164 172" fill="none" xmlns="http://www.w3.org/2000/svg">
<g clip-path="url(#clip0_662_4822)">
<path d="M106.02 139.775C106.586 135.873 110.996 129.863 124.109 137.043" stroke="black" stroke-width="1.56644" stroke-linecap="round"/>
<path d="M115.413 113.8C115.925 110.469 116.295 103.54 113.674 102.478C111.053 101.417 110.044 104.605 109.867 106.332L107.795 118.435" stroke="black" stroke-width="1.56644" stroke-linecap="round"/>
<path d="M120.366 116.989C121.1 114.106 122.156 105.93 119.196 104.263C118.641 103.972 117.165 103.576 115.703 104.324" stroke="black" stroke-width="1.56644" stroke-linecap="round"/>
<path d="M124.63 114.597C125.286 112.059 126.365 108.018 123.53 107.8H121.307" stroke="black" stroke-width="1.56644" stroke-linecap="round"/>
<path d="M125.486 110.32C127.556 109.882 128.121 113.051 128.121 114.597C128.422 117.502 128.121 125.937 124.11 137.043C123.395 139.669 122.296 145.89 123.615 149.758" stroke="black" stroke-width="1.56644" stroke-linecap="round"/>
<path d="M101.305 124.041C101.526 125.725 102.781 132.098 104.974 134.846C107.166 137.595 106.035 137.867 106.02 139.775L104.974 158.394" stroke="black" stroke-width="1.56644" stroke-linecap="round"/>
<path d="M107.923 118.905L79.8665 138.045C79.4213 138.348 78.8126 138.217 78.5332 137.756C76.6942 134.721 74.5563 131.196 72.2289 127.362C59.3533 106.154 40.6767 75.489 34.7276 66.0979C27.6977 55.0006 55.9764 23.9625 71.5932 9.23915C71.9554 8.89761 72.5105 8.91061 72.8711 9.25404L83.3362 19.2209" stroke="black" stroke-width="1.56644" stroke-linecap="round"/>
<path d="M72.2287 127.362L60.143 141.636C59.7467 142.104 59.0274 142.089 58.6712 141.59C43.6343 120.537 12.9783 79.6075 2.46222 72.847C2.01201 72.5575 1.84632 71.9714 2.11123 71.5064L34.5289 14.5935C34.6558 14.3709 34.8669 14.2078 35.1179 14.1557C39.1515 13.3181 48.5664 13.8235 57.0521 22.1548" stroke="black" stroke-width="1.56644" stroke-linecap="round"/>
<path d="M107.922 118.749L97.4594 119.333C96.991 119.359 96.5778 119.049 96.4857 118.589C93.4628 103.483 85.4833 71.6506 76.407 58.9571C68.4796 47.8704 63.9266 42.517 62.0531 40.6197C61.6772 40.239 61.6342 39.6197 61.9923 39.2224C66.7324 33.9626 74.4424 26.3379 83.3354 19.221C93.4819 11.1009 105.168 3.64203 115.741 1.11232C116.152 1.01385 116.574 1.21194 116.771 1.58644L125.236 17.6746" stroke="black" stroke-width="1.56644" stroke-linecap="round"/>
<path d="M128.865 114.765C131.032 112.955 138.975 110.052 153.717 112.433C154.39 112.542 154.966 111.938 154.814 111.274C152.182 99.7397 148.99 74.0679 155.149 52.915C161.223 32.05 162.464 12.751 162.332 4.46292C162.322 3.8167 161.669 3.39579 161.067 3.63164L125.236 17.6747L102.633 26.5329C102.271 26.6751 102.033 27.0109 102.037 27.4006C102.221 44.8707 104.039 84.1482 109.949 106.635" stroke="black" stroke-width="1.56644" stroke-linecap="round"/>
<path d="M122.828 91.4927C129.495 89.2082 142.981 84.2632 143.596 82.7598" stroke="black" stroke-width="1.56644" stroke-linecap="round"/>
<path d="M122.828 78.2277C122.718 77.1958 127.114 74.7123 137.663 71.7057" stroke="black" stroke-width="1.56644" stroke-linecap="round"/>
<path d="M121.07 65.8469C129.385 63.231 146.586 57.4016 148.871 55.014" stroke="black" stroke-width="1.56644" stroke-linecap="round"/>
<path d="M119.422 52.8031L135.685 45.9496" stroke="black" stroke-width="1.56644" stroke-linecap="round"/>
<path d="M119.422 38.7644C123.671 36.0745 135.509 29.6337 148.871 25.3889" stroke="black" stroke-width="1.56644" stroke-linecap="round"/>
<path d="M95.3027 51.8204L102.564 48.7373" stroke="black" stroke-width="1.56644" stroke-linecap="round"/>
<path d="M89.0312 42.3509L102.012 35.4141" stroke="black" stroke-width="1.56644" stroke-linecap="round"/>
<path d="M99.2637 61.7303L103.444 59.8584" stroke="black" stroke-width="1.56644" stroke-linecap="round"/>
<path d="M81.6875 99.9515L86.2117 94.8223" stroke="black" stroke-width="1.56644" stroke-linecap="round"/>
<path d="M75.1777 90.6753C76.7595 87.9835 80.5187 82.2504 85.5507 79.9806" stroke="black" stroke-width="1.56644" stroke-linecap="round"/>
<path d="M66.6816 76.9248L77.2752 65.1385" stroke="black" stroke-width="1.56644" stroke-linecap="round"/>
<path d="M58.957 67.2122L71.6471 53.8981" stroke="black" stroke-width="1.56644" stroke-linecap="round"/>
<path d="M31.7012 78.7418L38.2564 72.3821" stroke="black" stroke-width="1.56644" stroke-linecap="round"/>
<path d="M38.2559 84.663L43.2816 80.277" stroke="black" stroke-width="1.56644" stroke-linecap="round"/>
<path d="M43.2812 92.8868L48.5257 88.8298" stroke="black" stroke-width="1.56644" stroke-linecap="round"/>
<path d="M49.9453 100.782L53.988 97.6018" stroke="black" stroke-width="1.56644" stroke-linecap="round"/>
<path d="M54.6445 107.47L57.7038 104.839" stroke="black" stroke-width="1.56644" stroke-linecap="round"/>
</g>
<defs>
<clipPath id="clip0_662_4822">
<rect width="162.283" height="171.369" fill="white" transform="translate(0.933594)"/>
</clipPath>
</defs>
</svg>
