<svg width="24" height="24" viewBox="0 0 24 24" fill="none" xmlns="http://www.w3.org/2000/svg">
<path d="M19.4856 20.154L13.2236 13.892C12.7236 14.318 12.1486 14.6477 11.4986 14.881C10.8486 15.1144 10.1953 15.231 9.53859 15.231C7.93726 15.231 6.58193 14.6767 5.47259 13.568C4.36326 12.4594 3.80859 11.1044 3.80859 9.50305C3.80859 7.90171 4.36259 6.54605 5.47059 5.43605C6.57859 4.32605 7.93326 3.77038 9.53459 3.76905C11.1359 3.76771 12.4919 4.32238 13.6026 5.43305C14.7133 6.54371 15.2689 7.89938 15.2696 9.50005C15.2696 10.1947 15.1466 10.867 14.9006 11.517C14.6546 12.167 14.3313 12.723 13.9306 13.185L20.1926 19.446L19.4856 20.154ZM9.53859 14.23C10.8653 14.23 11.9856 13.7734 12.8996 12.86C13.8136 11.9467 14.2703 10.8264 14.2696 9.49904C14.2689 8.17171 13.8123 7.05171 12.8996 6.13905C11.9869 5.22638 10.8669 4.76971 9.53959 4.76905C8.21226 4.76838 7.09193 5.22505 6.17859 6.13905C5.26526 7.05305 4.80859 8.17305 4.80859 9.49904C4.80859 10.825 5.26526 11.945 6.17859 12.859C7.09193 13.773 8.21193 14.2307 9.53859 14.23Z" fill="black"/>
</svg>
