<svg width="25" height="25" viewBox="0 0 25 25" fill="none" xmlns="http://www.w3.org/2000/svg">
<path d="M18.5918 21.5249C17.8985 21.5249 17.3082 21.2816 16.8208 20.7949C16.3335 20.3096 16.0898 19.7196 16.0898 19.0249C16.0898 18.8916 16.1015 18.7539 16.1248 18.6119C16.1475 18.4692 16.1818 18.3352 16.2278 18.2099L8.48584 13.6479C8.24118 13.9239 7.95651 14.1389 7.63184 14.2929C7.30784 14.4476 6.96051 14.5249 6.58984 14.5249C5.89518 14.5249 5.30518 14.2822 4.81984 13.7969C4.33318 13.3109 4.08984 12.7209 4.08984 12.0269C4.08984 11.3329 4.33318 10.7426 4.81984 10.2559C5.30651 9.76924 5.89651 9.52557 6.58984 9.5249C6.96051 9.5249 7.30784 9.60224 7.63184 9.7569C7.95651 9.9109 8.24118 10.1259 8.48584 10.4019L16.2278 5.8399C16.1818 5.71457 16.1475 5.58057 16.1248 5.4379C16.1015 5.2959 16.0898 5.15824 16.0898 5.0249C16.0898 4.33024 16.3328 3.74024 16.8188 3.2549C17.3042 2.76824 17.8938 2.5249 18.5878 2.5249C19.2818 2.5249 19.8722 2.7679 20.3588 3.2539C20.8455 3.7399 21.0892 4.32957 21.0898 5.0229C21.0905 5.71624 20.8472 6.30657 20.3598 6.7939C19.8745 7.28124 19.2845 7.5249 18.5898 7.5249C18.2192 7.5249 17.8718 7.44757 17.5478 7.2929C17.2232 7.1389 16.9385 6.9239 16.6938 6.6479L8.95184 11.2099C8.99784 11.3352 9.03218 11.4686 9.05484 11.6099C9.07818 11.7519 9.08984 11.8889 9.08984 12.0209C9.08984 12.1529 9.07818 12.2912 9.05484 12.4359C9.03151 12.5806 8.99718 12.7152 8.95184 12.8399L16.6938 17.4019C16.9385 17.1259 17.2232 16.9109 17.5478 16.7569C17.8718 16.6022 18.2192 16.5249 18.5898 16.5249C19.2845 16.5249 19.8745 16.7679 20.3598 17.2539C20.8465 17.7392 21.0898 18.3289 21.0898 19.0229C21.0898 19.7169 20.8472 20.3072 20.3618 20.7939C19.8765 21.2806 19.2865 21.5242 18.5918 21.5249ZM18.5898 6.5249C19.0012 6.5249 19.3542 6.3779 19.6488 6.0839C19.9435 5.7899 20.0905 5.4369 20.0898 5.0249C20.0892 4.6129 19.9422 4.2599 19.6488 3.9659C19.3555 3.6719 19.0025 3.5249 18.5898 3.5249C18.1772 3.5249 17.8242 3.6719 17.5308 3.9659C17.2375 4.2599 17.0905 4.6129 17.0898 5.0249C17.0892 5.4369 17.2362 5.7899 17.5308 6.0839C17.8255 6.3779 18.1785 6.5249 18.5898 6.5249ZM6.58984 13.5249C7.00118 13.5249 7.35418 13.3779 7.64884 13.0839C7.94351 12.7899 8.09051 12.4369 8.08984 12.0249C8.08918 11.6129 7.94218 11.2599 7.64884 10.9659C7.35551 10.6719 7.00251 10.5249 6.58984 10.5249C6.17718 10.5249 5.82418 10.6719 5.53084 10.9659C5.23751 11.2599 5.09051 11.6129 5.08984 12.0249C5.08918 12.4369 5.23618 12.7899 5.53084 13.0839C5.82551 13.3779 6.17851 13.5249 6.58984 13.5249ZM18.5898 20.5249C19.0012 20.5249 19.3542 20.3779 19.6488 20.0839C19.9435 19.7899 20.0905 19.4369 20.0898 19.0249C20.0892 18.6129 19.9422 18.2599 19.6488 17.9659C19.3555 17.6719 19.0025 17.5249 18.5898 17.5249C18.1772 17.5249 17.8242 17.6719 17.5308 17.9659C17.2375 18.2599 17.0905 18.6129 17.0898 19.0249C17.0892 19.4369 17.2362 19.7899 17.5308 20.0839C17.8255 20.3779 18.1785 20.5249 18.5898 20.5249Z" fill="black"/>
</svg>
