<svg width="25" height="25" viewBox="0 0 25 25" fill="none" xmlns="http://www.w3.org/2000/svg">
<path d="M4.07618 18.5C3.79284 18.5 3.55551 18.404 3.36418 18.212C3.17284 18.02 3.07684 17.7827 3.07618 17.5C3.07551 17.2173 3.17151 16.98 3.36418 16.788C3.55684 16.596 3.79418 16.5 4.07618 16.5H8.07618C8.35951 16.5 8.59718 16.596 8.78918 16.788C8.98118 16.98 9.07684 17.2173 9.07618 17.5C9.07551 17.7827 8.97951 18.0203 8.78818 18.213C8.59684 18.4057 8.35951 18.5013 8.07618 18.5H4.07618ZM4.07618 13.5C3.79284 13.5 3.55551 13.404 3.36418 13.212C3.17284 13.02 3.07684 12.7827 3.07618 12.5C3.07551 12.2173 3.17151 11.98 3.36418 11.788C3.55684 11.596 3.79418 11.5 4.07618 11.5H14.0762C14.3595 11.5 14.5972 11.596 14.7892 11.788C14.9812 11.98 15.0768 12.2173 15.0762 12.5C15.0755 12.7827 14.9795 13.0203 14.7882 13.213C14.5968 13.4057 14.3595 13.5013 14.0762 13.5H4.07618ZM4.07618 8.5C3.79284 8.5 3.55551 8.404 3.36418 8.212C3.17284 8.02 3.07684 7.78267 3.07618 7.5C3.07551 7.21733 3.17151 6.98 3.36418 6.788C3.55684 6.596 3.79418 6.5 4.07618 6.5H20.0762C20.3595 6.5 20.5972 6.596 20.7892 6.788C20.9812 6.98 21.0768 7.21733 21.0762 7.5C21.0755 7.78267 20.9795 8.02033 20.7882 8.213C20.5968 8.40567 20.3595 8.50133 20.0762 8.5H4.07618Z" fill="black"/>
</svg>
