<svg width="11" height="11" viewBox="0 0 11 11" fill="none" xmlns="http://www.w3.org/2000/svg">
<path d="M1.43566 10.706C1.24637 10.706 1.08412 10.6276 0.948907 10.4707C0.813698 10.3139 0.746094 10.1273 0.746094 9.91094C0.746094 9.68379 0.813698 9.48909 0.948907 9.32684C1.08412 9.16459 1.24637 9.08347 1.43566 9.08347C1.61594 9.08347 1.77143 9.16459 1.90213 9.32684C2.03283 9.48909 2.09818 9.68379 2.09818 9.91094C2.09818 10.1273 2.03283 10.3139 1.90213 10.4707C1.77143 10.6276 1.61594 10.706 1.43566 10.706ZM3.45027 10.3815V9.40797H10.4811V10.3815H3.45027ZM1.43566 6.64971C1.24637 6.64971 1.08412 6.57129 0.948907 6.41445C0.813698 6.25761 0.746094 6.06561 0.746094 5.83846C0.746094 5.61131 0.813698 5.41931 0.948907 5.26247C1.08412 5.10563 1.24637 5.02721 1.43566 5.02721C1.61594 5.02721 1.77143 5.10833 1.90213 5.27058C2.03283 5.43283 2.09818 5.62213 2.09818 5.83846C2.09818 6.05479 2.03283 6.24408 1.90213 6.40634C1.77143 6.56859 1.61594 6.64971 1.43566 6.64971ZM3.45027 6.32521V5.35171H10.4811V6.32521H3.45027ZM1.42214 2.59345C1.23284 2.59345 1.07285 2.51503 0.942146 2.35819C0.811445 2.20135 0.746094 2.00935 0.746094 1.7822C0.746094 1.55505 0.811445 1.36305 0.942146 1.20621C1.07285 1.04937 1.23284 0.970947 1.42214 0.970947C1.61143 0.970947 1.77143 1.04937 1.90213 1.20621C2.03283 1.36305 2.09818 1.55505 2.09818 1.7822C2.09818 2.00935 2.03283 2.20135 1.90213 2.35819C1.77143 2.51503 1.61143 2.59345 1.42214 2.59345ZM3.45027 2.26895V1.29545H10.4811V2.26895H3.45027Z" fill="black"/>
</svg>
