<svg width="9" height="12" viewBox="0 0 9 12" fill="none" xmlns="http://www.w3.org/2000/svg">
<path d="M0.521484 11.4013V10.5321H8.86579V11.4013H0.521484ZM4.69364 9.08347C3.69033 9.08347 2.84349 8.75027 2.15309 8.08389C1.4627 7.4175 1.11751 6.60142 1.11751 5.63565V0.970947H2.30955V5.66462C2.30955 6.30203 2.53802 6.83804 2.99497 7.27264C3.45192 7.70724 4.01815 7.92454 4.69364 7.92454C5.36913 7.92454 5.93535 7.70724 6.3923 7.27264C6.84925 6.83804 7.07772 6.30203 7.07772 5.66462V0.970947H8.26977V5.63565C8.26977 6.60142 7.92457 7.4175 7.23418 8.08389C6.54379 8.75027 5.69694 9.08347 4.69364 9.08347Z" fill="black"/>
</svg>
