<svg width="32" height="33" viewBox="0 0 32 33" fill="none" xmlns="http://www.w3.org/2000/svg">
<path d="M25.4001 7.04667C24.1777 5.81191 22.7216 4.8329 21.1169 4.16674C19.5122 3.50059 17.7909 3.16062 16.0534 3.16667C8.7734 3.16667 2.84007 9.10001 2.84007 16.38C2.84007 18.7133 3.4534 20.98 4.60007 22.98L2.7334 29.8333L9.7334 27.9933C11.6667 29.0467 13.8401 29.6067 16.0534 29.6067C23.3334 29.6067 29.2667 23.6733 29.2667 16.3933C29.2667 12.86 27.8934 9.54001 25.4001 7.04667ZM16.0534 27.3667C14.0801 27.3667 12.1467 26.8333 10.4534 25.8333L10.0534 25.5933L5.8934 26.6867L7.00006 22.6333L6.7334 22.22C5.63706 20.4693 5.05492 18.4457 5.0534 16.38C5.0534 10.3267 9.98673 5.39334 16.0401 5.39334C18.9734 5.39334 21.7334 6.54001 23.8001 8.62001C24.8234 9.63863 25.6343 10.8502 26.1859 12.1846C26.7375 13.5189 27.0188 14.9495 27.0134 16.3933C27.0401 22.4467 22.1067 27.3667 16.0534 27.3667ZM22.0801 19.1533C21.7467 18.9933 20.1201 18.1933 19.8267 18.0733C19.5201 17.9667 19.3067 17.9133 19.0801 18.2333C18.8534 18.5667 18.2267 19.3133 18.0401 19.5267C17.8534 19.7533 17.6534 19.78 17.3201 19.6067C16.9867 19.4467 15.9201 19.0867 14.6667 17.9667C13.6801 17.0867 13.0267 16.0067 12.8267 15.6733C12.6401 15.34 12.8001 15.1667 12.9734 14.9933C13.1201 14.8467 13.3067 14.6067 13.4667 14.42C13.6267 14.2333 13.6934 14.0867 13.8001 13.8733C13.9067 13.6467 13.8534 13.46 13.7734 13.3C13.6934 13.14 13.0267 11.5133 12.7601 10.8467C12.4934 10.2067 12.2134 10.2867 12.0134 10.2733H11.3734C11.1467 10.2733 10.8001 10.3533 10.4934 10.6867C10.2001 11.02 9.34673 11.82 9.34673 13.4467C9.34673 15.0733 10.5334 16.6467 10.6934 16.86C10.8534 17.0867 13.0267 20.42 16.3334 21.8467C17.1201 22.1933 17.7334 22.3933 18.2134 22.54C19.0001 22.7933 19.7201 22.7533 20.2934 22.6733C20.9334 22.58 22.2534 21.8733 22.5201 21.1C22.8001 20.3267 22.8001 19.6733 22.7067 19.5267C22.6134 19.38 22.4134 19.3133 22.0801 19.1533Z" fill="black"/>
</svg>
